<svg width="124" height="124" viewBox="0 0 124 124" fill="none" xmlns="http://www.w3.org/2000/svg">
<g clip-path="url(#clip0)">
<path d="M9.65082 95.5907L10.1642 95.3407C11.1535 96.299 11.4166 96.4282 12.3391 95.9324L20.7794 91.6447C21.7812 91.1405 21.6393 90.853 20.9965 89.8238L21.4974 89.5613L24.603 93.3823C26.903 96.2074 26.8237 99.2492 24.3066 101.299C20.6082 104.295 15.9873 103.383 13.1029 99.8492L9.65082 95.5907ZM13.75 99.5783C15.7703 102.078 19.7108 102.078 22.9584 99.4283C25.1164 97.6783 25.6382 95.7116 23.885 93.5573L23.2422 92.7656L13.8251 97.5866C12.8274 98.0866 12.9235 98.5575 13.5997 99.3908L13.75 99.5783Z" fill="#072623"/>
<path d="M22.6077 110.07L23.0251 109.679C24.2774 110.295 24.5362 110.35 25.2834 109.6L32.0582 102.995C32.8638 102.22 32.6426 101.983 31.7201 101.195L32.1375 100.778L40.3733 106.241L38.1067 108.579L37.7393 108.333C38.5074 106.445 38.4323 105.754 37.2927 104.999L34.7631 103.333L30.9145 107.108L33.1351 108.583C33.8155 109.033 34.45 108.812 35.456 108.104L35.9194 108.408L32.964 111.325L32.4882 111.004C33.1686 110.083 33.3229 109.549 32.6217 109.099L30.401 107.624L27.166 110.783C26.4272 111.491 26.6817 111.975 27.7002 112.65L28.9192 113.458C30.0754 114.225 31.1232 113.987 33.6194 113.179L34.0659 113.475L31.048 115.671L22.6077 110.07Z" fill="#072623"/>
<path d="M49.0932 109.162C51.8816 110.045 52.7541 111.837 52.2031 113.562C51.3223 116.329 48.4045 117.075 45.0693 116.016L43.817 115.625L42.2015 118.45C41.6589 119.421 41.9678 119.791 43.6292 120.433L43.3453 120.967L37.5891 119.142L37.8812 118.65C39.2379 118.908 39.5175 118.879 40.0267 117.954L44.7186 109.741C45.2779 108.774 44.9983 108.608 43.8837 108.104L44.1593 107.608L49.0932 109.162ZM44.1843 114.996L45.1736 115.308C47.3442 115.996 49.3478 115.354 50.1367 112.904C50.5959 111.458 50.0575 110.162 48.2918 109.604L47.4069 109.325L44.1843 114.996Z" fill="#072623"/>
<path d="M62.4633 119.487L57.3124 119.35L55.8639 121.621C55.6634 121.884 55.534 122.194 55.4882 122.521C55.4882 122.962 55.9515 123.125 56.9701 123.204L56.8448 123.758L53.0296 123.654L53.1548 123.104C53.4024 123.115 53.6484 123.061 53.8682 122.947C54.0881 122.833 54.2739 122.663 54.4071 122.454L61.1736 112.016L60.944 110.766L63.1689 110.825L65.1849 122.754C65.2643 123.237 65.6024 123.379 66.1116 123.467L65.9865 124.017L60.9314 123.883L61.0567 123.329C62.0585 123.329 62.8724 123.25 62.8975 122.325C62.8994 122.157 62.8854 121.99 62.8558 121.825L62.4633 119.487ZM57.759 118.675L62.3506 118.8L61.3906 112.966L57.759 118.675Z" fill="#072623"/>
<path d="M76.2425 120.375C76.3176 121.492 76.6599 121.475 77.8371 121.279L77.8872 121.842L72.7862 123.333L72.757 122.767C74.0093 122.221 74.243 122.042 74.147 120.992L73.4416 111.562C73.3664 110.45 73.0241 110.466 71.847 110.662L71.7969 110.099L77.0022 108.595C79.8282 107.762 81.2474 108.858 81.7066 110.42C82.4162 112.833 80.3124 114.679 79.0059 115.35L82.1115 118.429C83.0215 119.3 83.585 119.579 84.5576 119.333L84.6077 119.896L81.7608 120.729C81.1317 120.405 80.5739 119.959 80.1204 119.416L77.1442 116.241L75.9712 116.587L76.2425 120.375ZM75.4369 109.745L75.9003 115.854L76.7684 115.6C78.9724 114.954 80.183 113.35 79.5068 111.058C79.1186 109.729 78.1376 108.954 76.4137 109.458L75.4369 109.745Z" fill="#072623"/>
<path d="M94.7469 112.32C95.131 113.37 95.5275 113.229 96.7046 112.633L96.8924 113.17L92.113 116.208L91.9084 115.683C93.0689 114.746 93.2735 114.483 92.9061 113.491L89.1493 103.433L88.1641 104.058C86.8659 104.891 86.7866 105.854 86.7991 109.004L86.3817 109.274L85.1671 105.241L94.509 99.2991L96.1787 103.049L95.7612 103.308C93.9371 101.312 93.407 100.724 92.113 101.549L90.9567 102.287L94.7469 112.32Z" fill="#072623"/>
<path d="M105.316 90.5572L109.716 101.483L109.361 101.933L100.244 96.9324L104.94 104.016C105.663 105.012 106.005 105.091 107.028 103.929L107.382 104.374L104.844 107.583L104.477 107.166C105.074 106.295 105.17 105.874 104.673 105.104L99.2468 96.8241C98.6123 96.0407 98.1866 96.1074 97.3893 96.9866L97.0344 96.5449L99.2175 93.7865C99.4769 94.047 99.779 94.2612 100.111 94.4198L107.817 98.6158L104.06 89.4155C103.921 89.0365 103.741 88.6733 103.525 88.3321L105.717 85.5654L106.076 86.0071C105.387 86.9988 105.354 87.5155 105.984 88.2988L112.826 94.8074C113.502 95.3865 113.84 95.224 114.495 94.4907L114.85 94.9365L111.54 99.1033L111.177 98.6866C111.991 97.4366 112.112 97.1157 111.289 96.2782L105.316 90.5572Z" fill="#072623"/>
<path d="M118.29 88.4947L117.81 88.1905C118.106 86.8446 118.085 86.5612 117.171 86.0279L109.086 81.0944C108.134 80.5069 107.958 80.7777 107.416 81.8611L106.927 81.5736L110.2 72.2566L113.026 73.8692L112.88 74.2859C110.855 74.0108 110.204 74.2525 109.749 75.5359L108.747 78.3985L113.364 81.1861L114.245 78.686C114.512 77.9151 114.14 77.3568 113.205 76.5567L113.385 76.0317L116.933 78.1735L116.745 78.7152C115.681 78.2985 115.13 78.2985 114.858 79.0568L113.978 81.5569L117.843 83.907C118.715 84.4487 119.12 84.0778 119.513 82.9278L119.997 81.5486C120.456 80.2402 119.968 79.2818 118.565 77.0693L118.745 76.5651L121.621 78.9401L118.29 88.4947Z" fill="#072623"/>
<path d="M112.867 58.4978C111.857 58.2561 111.615 58.7312 111.494 60.1645L110.943 60.0353L111.093 55.6185L111.644 55.7685C111.765 57.1394 111.866 57.4019 112.897 57.6436L123.996 60.4104L123.975 61.0396L113.239 66.5522L121.784 68.6607C122.794 68.8982 123.015 68.444 123.157 66.9939L123.708 67.1231L123.557 71.5233L123.007 71.3941C122.885 70.0023 122.785 69.7565 121.754 69.4982L112.379 67.1773C111.544 67.5939 111.264 67.7689 111.198 68.6356L110.647 68.4856L110.759 65.3272L120.661 60.3937L112.867 58.4978Z" fill="#072623"/>
<path d="M119.579 45.4599C120.694 45.3974 120.673 44.9807 120.439 43.6806L121.007 43.6557L122.556 49.0975L121.988 49.1392C121.424 47.7642 121.232 47.4725 120.172 47.56L109.44 48.2725L109.762 49.3934C110.179 50.8726 111.089 51.2267 114.115 52.1184L114.253 52.6018H110.037L107.015 41.9681L111.076 41.4306L111.21 41.8931C108.768 43.064 108.059 43.4015 108.476 44.8765L108.852 46.1932L119.579 45.4599Z" fill="#072623"/>
<path d="M14.8311 61.3021C16.2545 62.8021 17.1144 64.9938 17.4233 67.9981L18.0912 74.515L0.76813 76.2901L0.100211 69.7732C-0.208683 66.7647 0.187894 64.448 1.2732 62.6896C2.3585 60.9312 4.24109 59.4728 7.75581 59.1145C11.2705 58.7561 13.4077 59.802 14.8311 61.3021ZM5.30966 66.1481C4.85884 66.7023 4.57083 67.619 4.70023 68.8732L4.83384 70.1732L12.744 69.3648L12.6104 68.0606C12.481 66.8106 12.0135 65.9772 11.4583 65.5189C10.9031 65.0605 10.1017 64.648 8.34434 64.8272C6.58698 65.0063 5.7563 65.5731 5.30966 66.1481Z" fill="#072623"/>
<path d="M22.9667 39.0096L18.1579 50.6767L2.05786 44.0515L6.7706 32.6386L10.9239 34.347L8.37772 40.518L10.1267 41.2389L12.5311 35.4053L16.6593 37.1054L14.255 42.939L16.125 43.7056L18.7674 37.3013L22.9667 39.0096Z" fill="#072623"/>
<path d="M34.9258 24.6091C34.5877 26.3175 33.5651 27.7884 32.054 29.126C30.2215 30.7236 27.9119 31.6727 25.4838 31.8261L24.5362 26.9468C26.2427 26.8615 27.8873 26.2824 29.2697 25.28C29.8374 24.78 30.0838 24.2591 29.7498 23.8841C29.4159 23.5091 28.8106 23.7716 28.2012 24.0383C27.5918 24.305 26.2727 24.9008 25.7759 25.1008C24.9359 25.4621 24.0386 25.6723 23.1253 25.7217C21.9648 25.7217 20.7334 25.4133 19.4811 23.9966C18.95 23.3888 18.5602 22.6713 18.3393 21.8955C18.1185 21.1197 18.0722 20.3047 18.2038 19.509C18.4125 18.1506 19.2975 16.5255 21.0381 14.9922C22.7139 13.5011 24.8387 12.6085 27.0782 12.4546L28.126 16.9131C26.6022 16.9512 25.1302 17.4722 23.9226 18.4006C23.2422 19.0007 22.9792 19.4673 23.3298 19.8632C23.6804 20.259 24.3859 19.8381 24.7741 19.6673C25.1623 19.4965 26.1516 19.0215 26.7402 18.7715C27.7336 18.3154 28.7982 18.0335 29.8875 17.9381C30.6019 17.9309 31.3089 18.0844 31.9557 18.3874C32.6025 18.6904 33.1726 19.135 33.6235 19.6882C34.2033 20.3543 34.6222 21.1443 34.848 21.9975C35.0738 22.8506 35.1004 23.7441 34.9258 24.6091Z" fill="#072623"/>
<path d="M49.9531 18.8715L44.5642 20.7424L38.8414 4.32515L44.2303 2.45425L49.9531 18.8715Z" fill="#072623"/>
<path d="M75.1364 15.5214C73.6295 16.6381 71.4297 18.3381 66.7879 17.8715C62.1461 17.4048 57.9051 14.1672 58.5271 8.02528C59.149 1.88341 63.9535 -0.416663 68.7163 0.0625197C73.4792 0.541703 75.2408 3.25429 75.6958 3.81265L71.6092 6.5669C71.2071 6.04324 70.7012 5.60797 70.123 5.28822C69.5449 4.96847 68.9069 4.77113 68.2489 4.70852C66.2369 4.50435 64.492 5.85022 64.2249 8.60865C63.9577 11.3671 65.377 13.0254 67.3848 13.2296C69.3926 13.4338 69.8351 12.8421 69.8351 12.8421L69.9603 11.592L67.3222 11.3254L67.7396 7.1586L75.9003 7.99197L75.1364 15.5214Z" fill="#072623"/>
<path d="M95.6277 31.3261L90.8857 27.7718L92.4845 16.8423C92.4845 16.8423 91.4493 18.4256 90.6896 19.434L86.7491 24.6717L82.3118 21.3382L92.7683 7.44193L97.7107 11.1462L95.9115 21.9257C95.9115 21.9257 96.9468 20.3424 97.7065 19.334L101.647 14.0963L106.084 17.4297L95.6277 31.3261Z" fill="#072623"/>
<path d="M51.9568 33.847C46.0557 36.017 40.9319 39.8852 37.2332 44.9622C33.5345 50.0392 31.4272 56.0971 31.1777 62.3697C30.9282 68.6423 32.5478 74.8479 35.8315 80.2017C39.1153 85.5555 43.9158 89.8169 49.6259 92.4472C55.336 95.0774 61.6992 95.9583 67.9109 94.9784C74.1226 93.9986 79.9036 91.2019 84.523 86.9421C89.1423 82.6824 92.3924 77.1509 93.8623 71.0473C95.3322 64.9436 94.9559 58.5419 92.7808 52.6518C89.8555 44.7616 83.9153 38.3513 76.2626 34.8263C68.6099 31.3012 59.8692 30.949 51.9568 33.847ZM73.283 91.6114C67.7391 93.652 61.7135 94.0058 55.9682 92.6279C50.223 91.2501 45.016 88.2025 41.0059 83.8706C36.9958 79.5388 34.3625 74.1172 33.4392 68.2914C32.5158 62.4656 33.3439 56.4974 35.8186 51.1414C38.2932 45.7854 42.3034 41.2822 47.342 38.2012C52.3805 35.1203 58.2212 33.6 64.1253 33.8325C70.0295 34.0651 75.7319 36.0402 80.5116 39.5079C85.2912 42.9756 88.9334 47.7803 90.9775 53.3143C93.7087 60.7372 93.3782 68.9385 90.0585 76.1184C86.7388 83.2983 80.7011 88.8703 73.2705 91.6114H73.283Z" fill="#E64725"/>
<path d="M85.0209 57.7353C85.1211 58.1103 85.2129 58.4895 85.3006 58.8728C86.4471 64.242 85.6168 69.8439 82.9616 74.6515C80.3065 79.4592 76.0044 83.1505 70.8441 85.049C65.6838 86.9474 60.0108 86.9258 54.8652 84.988C49.7196 83.0502 45.4459 79.3261 42.8277 74.4984C42.644 74.1525 42.4688 73.8025 42.3018 73.4525L44.0341 72.6191C44.1718 72.9066 44.3138 73.19 44.4515 73.4525C46.8358 77.903 50.7526 81.3423 55.4788 83.1353C60.205 84.9283 65.4214 84.954 70.1651 83.2077C74.9088 81.4613 78.8593 78.0609 81.2876 73.6341C83.7158 69.2073 84.4577 64.053 83.3763 59.1228C83.3137 58.8187 83.2344 58.5103 83.1509 58.202L85.0209 57.7353Z" fill="#E64725"/>
<path d="M53.5472 54.156C55.4465 59.2978 55.8973 63.8605 54.5574 64.3521C53.2175 64.8438 50.596 61.0812 48.7134 55.9436C46.8309 50.8059 46.3592 46.2307 47.7033 45.7391C49.0474 45.2474 51.6521 49.01 53.5472 54.156Z" fill="#E64725"/>
<path d="M44.4641 73.4816C44.2597 73.6744 44.0374 73.8474 43.8003 73.9983C43.4954 74.1999 43.1692 74.3676 42.8277 74.4983C42.0471 74.7817 41.3751 74.7608 41.1205 74.3817C40.774 73.8525 41.4085 72.8149 42.5355 72.0816C43.6625 71.3482 44.869 71.1649 45.2154 71.694C45.4909 72.1107 45.1653 72.8316 44.4641 73.4816Z" fill="#E64725"/>
<path d="M86.5237 57.6811C86.5863 58.127 86.077 58.5853 85.3006 58.8728C84.9567 58.9969 84.5995 59.0808 84.2362 59.1228C83.9598 59.1626 83.6799 59.1723 83.4014 59.152C82.458 59.1145 81.7316 58.7811 81.6732 58.2895C81.5981 57.6561 82.6207 57.0103 83.9607 56.8436C85.3006 56.6769 86.4486 57.0519 86.5237 57.6811Z" fill="#E64725"/>
<path d="M68.5787 48.6266C70.478 53.7684 70.9288 58.3311 69.5888 58.8228C68.2489 59.3145 65.6275 55.5518 63.7449 50.4142C61.8623 45.2765 61.3906 40.7014 62.7348 40.2097C64.0789 39.718 66.6836 43.4889 68.5787 48.6266Z" fill="#E64725"/>
</g>
<defs>
<clipPath id="clip0">
<rect width="124" height="124" fill="white"/>
</clipPath>
</defs>
</svg>
